<svg width="211" height="134" viewBox="0 0 211 134" fill="none" xmlns="http://www.w3.org/2000/svg">
<path d="M6.40909 133.818V124.682L30.6477 100.92C32.9659 98.5795 34.8977 96.5 36.4432 94.6818C37.9886 92.8636 39.1477 91.1023 39.9205 89.3977C40.6932 87.6932 41.0795 85.875 41.0795 83.9432C41.0795 81.7386 40.5795 79.8523 39.5795 78.2841C38.5795 76.6932 37.2045 75.4659 35.4545 74.6023C33.7045 73.7386 31.7159 73.3068 29.4886 73.3068C27.1932 73.3068 25.1818 73.7841 23.4545 74.7386C21.7273 75.6705 20.3864 77 19.4318 78.7273C18.5 80.4545 18.0341 82.5114 18.0341 84.8977H6C6 80.4659 7.01136 76.6136 9.03409 73.3409C11.0568 70.0682 13.8409 67.5341 17.3864 65.7386C20.9545 63.9432 25.0455 63.0455 29.6591 63.0455C34.3409 63.0455 38.4545 63.9205 42 65.6705C45.5455 67.4205 48.2955 69.8182 50.25 72.8636C52.2273 75.9091 53.2159 79.3864 53.2159 83.2955C53.2159 85.9091 52.7159 88.4773 51.7159 91C50.7159 93.5227 48.9545 96.3182 46.4318 99.3864C43.9318 102.455 40.4205 106.17 35.8977 110.534L23.8636 122.773V123.25H54.2727V133.818H6.40909Z" fill="#CC4037"/>
<path d="M54.7127 106.864V96.8068L84.3377 50H92.7241V64.3182H87.6105L67.6673 95.9205V96.4659H109.02V106.864H54.7127ZM88.0195 119.818V103.795L88.1559 99.2955V50H100.088V119.818H88.0195Z" fill="#CC4037"/>
<path d="M109.352 133.818V124.682L133.59 100.92C135.908 98.5795 137.84 96.5 139.386 94.6818C140.931 92.8636 142.09 91.1023 142.863 89.3977C143.636 87.6932 144.022 85.875 144.022 83.9432C144.022 81.7386 143.522 79.8523 142.522 78.2841C141.522 76.6932 140.147 75.4659 138.397 74.6023C136.647 73.7386 134.658 73.3068 132.431 73.3068C130.136 73.3068 128.124 73.7841 126.397 74.7386C124.67 75.6705 123.329 77 122.374 78.7273C121.442 80.4545 120.977 82.5114 120.977 84.8977H108.942C108.942 80.4659 109.954 76.6136 111.977 73.3409C113.999 70.0682 116.783 67.5341 120.329 65.7386C123.897 63.9432 127.988 63.0455 132.602 63.0455C137.283 63.0455 141.397 63.9205 144.943 65.6705C148.488 67.4205 151.238 69.8182 153.192 72.8636C155.17 75.9091 156.158 79.3864 156.158 83.2955C156.158 85.9091 155.658 88.4773 154.658 91C153.658 93.5227 151.897 96.3182 149.374 99.3864C146.874 102.455 143.363 106.17 138.84 110.534L126.806 122.773V123.25H157.215V133.818H109.352Z" fill="#CC4037"/>
<path d="M158.417 133.818V124.682L182.655 100.92C184.973 98.5795 186.905 96.5 188.451 94.6818C189.996 92.8636 191.155 91.1023 191.928 89.3977C192.701 87.6932 193.087 85.875 193.087 83.9432C193.087 81.7386 192.587 79.8523 191.587 78.2841C190.587 76.6932 189.212 75.4659 187.462 74.6023C185.712 73.7386 183.723 73.3068 181.496 73.3068C179.201 73.3068 177.189 73.7841 175.462 74.7386C173.735 75.6705 172.394 77 171.439 78.7273C170.507 80.4545 170.042 82.5114 170.042 84.8977H158.007C158.007 80.4659 159.019 76.6136 161.042 73.3409C163.064 70.0682 165.848 67.5341 169.394 65.7386C172.962 63.9432 177.053 63.0455 181.667 63.0455C186.348 63.0455 190.462 63.9205 194.007 65.6705C197.553 67.4205 200.303 69.8182 202.257 72.8636C204.235 75.9091 205.223 79.3864 205.223 83.2955C205.223 85.9091 204.723 88.4773 203.723 91C202.723 93.5227 200.962 96.3182 198.439 99.3864C195.939 102.455 192.428 106.17 187.905 110.534L175.871 122.773V123.25H206.28V133.818H158.417Z" fill="#CC4037"/>
<path d="M6.804 36.688H15.264V40H2.7V14.98H6.804V36.688ZM35.1481 40.252C32.8201 40.252 30.6721 39.712 28.7041 38.632C26.7601 37.528 25.2121 36.004 24.0601 34.06C22.9321 32.092 22.3681 29.884 22.3681 27.436C22.3681 24.988 22.9321 22.792 24.0601 20.848C25.2121 18.904 26.7601 17.392 28.7041 16.312C30.6721 15.208 32.8201 14.656 35.1481 14.656C37.5001 14.656 39.6481 15.208 41.5921 16.312C43.5601 17.392 45.1081 18.904 46.2361 20.848C47.3641 22.792 47.9281 24.988 47.9281 27.436C47.9281 29.884 47.3641 32.092 46.2361 34.06C45.1081 36.004 43.5601 37.528 41.5921 38.632C39.6481 39.712 37.5001 40.252 35.1481 40.252ZM35.1481 36.688C36.8041 36.688 38.2801 36.316 39.5761 35.572C40.8721 34.804 41.8801 33.724 42.6001 32.332C43.3441 30.916 43.7161 29.284 43.7161 27.436C43.7161 25.588 43.3441 23.968 42.6001 22.576C41.8801 21.184 40.8721 20.116 39.5761 19.372C38.2801 18.628 36.8041 18.256 35.1481 18.256C33.4921 18.256 32.0161 18.628 30.7201 19.372C29.4241 20.116 28.4041 21.184 27.6601 22.576C26.9401 23.968 26.5801 25.588 26.5801 27.436C26.5801 29.284 26.9401 30.916 27.6601 32.332C28.4041 33.724 29.4241 34.804 30.7201 35.572C32.0161 36.316 33.4921 36.688 35.1481 36.688ZM65.2506 40.252C63.5706 40.252 62.0586 39.964 60.7146 39.388C59.3706 38.788 58.3146 37.948 57.5466 36.868C56.7786 35.788 56.3946 34.528 56.3946 33.088H60.7866C60.8826 34.168 61.3026 35.056 62.0466 35.752C62.8146 36.448 63.8826 36.796 65.2506 36.796C66.6666 36.796 67.7706 36.46 68.5626 35.788C69.3546 35.092 69.7506 34.204 69.7506 33.124C69.7506 32.284 69.4986 31.6 68.9946 31.072C68.5146 30.544 67.9026 30.136 67.1586 29.848C66.4386 29.56 65.4306 29.248 64.1346 28.912C62.5026 28.48 61.1706 28.048 60.1386 27.616C59.1306 27.16 58.2666 26.464 57.5466 25.528C56.8266 24.592 56.4666 23.344 56.4666 21.784C56.4666 20.344 56.8266 19.084 57.5466 18.004C58.2666 16.924 59.2746 16.096 60.5706 15.52C61.8666 14.944 63.3666 14.656 65.0706 14.656C67.4946 14.656 69.4746 15.268 71.0106 16.492C72.5706 17.692 73.4346 19.348 73.6026 21.46H69.0666C68.9946 20.548 68.5626 19.768 67.7706 19.12C66.9786 18.472 65.9346 18.148 64.6386 18.148C63.4626 18.148 62.5026 18.448 61.7586 19.048C61.0146 19.648 60.6426 20.512 60.6426 21.64C60.6426 22.408 60.8706 23.044 61.3266 23.548C61.8066 24.028 62.4066 24.412 63.1266 24.7C63.8466 24.988 64.8306 25.3 66.0786 25.636C67.7346 26.092 69.0786 26.548 70.1106 27.004C71.1666 27.46 72.0546 28.168 72.7746 29.128C73.5186 30.064 73.8906 31.324 73.8906 32.908C73.8906 34.18 73.5426 35.38 72.8466 36.508C72.1746 37.636 71.1786 38.548 69.8586 39.244C68.5626 39.916 67.0266 40.252 65.2506 40.252ZM109.577 40.252C107.249 40.252 105.101 39.712 103.133 38.632C101.189 37.528 99.6407 36.004 98.4887 34.06C97.3607 32.092 96.7967 29.884 96.7967 27.436C96.7967 24.988 97.3607 22.792 98.4887 20.848C99.6407 18.904 101.189 17.392 103.133 16.312C105.101 15.208 107.249 14.656 109.577 14.656C111.929 14.656 114.077 15.208 116.021 16.312C117.989 17.392 119.537 18.904 120.665 20.848C121.793 22.792 122.357 24.988 122.357 27.436C122.357 29.884 121.793 32.092 120.665 34.06C119.537 36.004 117.989 37.528 116.021 38.632C114.077 39.712 111.929 40.252 109.577 40.252ZM109.577 36.688C111.233 36.688 112.709 36.316 114.005 35.572C115.301 34.804 116.309 33.724 117.029 32.332C117.773 30.916 118.145 29.284 118.145 27.436C118.145 25.588 117.773 23.968 117.029 22.576C116.309 21.184 115.301 20.116 114.005 19.372C112.709 18.628 111.233 18.256 109.577 18.256C107.921 18.256 106.445 18.628 105.149 19.372C103.853 20.116 102.833 21.184 102.089 22.576C101.369 23.968 101.009 25.588 101.009 27.436C101.009 29.284 101.369 30.916 102.089 32.332C102.833 33.724 103.853 34.804 105.149 35.572C106.445 36.316 107.921 36.688 109.577 36.688ZM139.679 40.252C137.999 40.252 136.487 39.964 135.143 39.388C133.799 38.788 132.743 37.948 131.975 36.868C131.207 35.788 130.823 34.528 130.823 33.088H135.215C135.311 34.168 135.731 35.056 136.475 35.752C137.243 36.448 138.311 36.796 139.679 36.796C141.095 36.796 142.199 36.46 142.991 35.788C143.783 35.092 144.179 34.204 144.179 33.124C144.179 32.284 143.927 31.6 143.423 31.072C142.943 30.544 142.331 30.136 141.587 29.848C140.867 29.56 139.859 29.248 138.563 28.912C136.931 28.48 135.599 28.048 134.567 27.616C133.559 27.16 132.695 26.464 131.975 25.528C131.255 24.592 130.895 23.344 130.895 21.784C130.895 20.344 131.255 19.084 131.975 18.004C132.695 16.924 133.703 16.096 134.999 15.52C136.295 14.944 137.795 14.656 139.499 14.656C141.923 14.656 143.903 15.268 145.439 16.492C146.999 17.692 147.863 19.348 148.031 21.46H143.495C143.423 20.548 142.991 19.768 142.199 19.12C141.407 18.472 140.363 18.148 139.067 18.148C137.891 18.148 136.931 18.448 136.187 19.048C135.443 19.648 135.071 20.512 135.071 21.64C135.071 22.408 135.299 23.044 135.755 23.548C136.235 24.028 136.835 24.412 137.555 24.7C138.275 24.988 139.259 25.3 140.507 25.636C142.163 26.092 143.507 26.548 144.539 27.004C145.595 27.46 146.483 28.168 147.203 29.128C147.947 30.064 148.319 31.324 148.319 32.908C148.319 34.18 147.971 35.38 147.275 36.508C146.603 37.636 145.607 38.548 144.287 39.244C142.991 39.916 141.455 40.252 139.679 40.252ZM169.614 40.252C167.286 40.252 165.138 39.712 163.17 38.632C161.226 37.528 159.678 36.004 158.526 34.06C157.398 32.092 156.834 29.884 156.834 27.436C156.834 24.988 157.398 22.792 158.526 20.848C159.678 18.904 161.226 17.392 163.17 16.312C165.138 15.208 167.286 14.656 169.614 14.656C171.966 14.656 174.114 15.208 176.058 16.312C178.026 17.392 179.574 18.904 180.702 20.848C181.83 22.792 182.394 24.988 182.394 27.436C182.394 29.884 181.83 32.092 180.702 34.06C179.574 36.004 178.026 37.528 176.058 38.632C174.114 39.712 171.966 40.252 169.614 40.252ZM169.614 36.688C171.27 36.688 172.746 36.316 174.042 35.572C175.338 34.804 176.346 33.724 177.066 32.332C177.81 30.916 178.182 29.284 178.182 27.436C178.182 25.588 177.81 23.968 177.066 22.576C176.346 21.184 175.338 20.116 174.042 19.372C172.746 18.628 171.27 18.256 169.614 18.256C167.958 18.256 166.482 18.628 165.186 19.372C163.89 20.116 162.87 21.184 162.126 22.576C161.406 23.968 161.046 25.588 161.046 27.436C161.046 29.284 161.406 30.916 162.126 32.332C162.87 33.724 163.89 34.804 165.186 35.572C166.482 36.316 167.958 36.688 169.614 36.688ZM199.716 40.252C198.036 40.252 196.524 39.964 195.18 39.388C193.836 38.788 192.78 37.948 192.012 36.868C191.244 35.788 190.86 34.528 190.86 33.088H195.252C195.348 34.168 195.768 35.056 196.512 35.752C197.28 36.448 198.348 36.796 199.716 36.796C201.132 36.796 202.236 36.46 203.028 35.788C203.82 35.092 204.216 34.204 204.216 33.124C204.216 32.284 203.964 31.6 203.46 31.072C202.98 30.544 202.368 30.136 201.624 29.848C200.904 29.56 199.896 29.248 198.6 28.912C196.968 28.48 195.636 28.048 194.604 27.616C193.596 27.16 192.732 26.464 192.012 25.528C191.292 24.592 190.932 23.344 190.932 21.784C190.932 20.344 191.292 19.084 192.012 18.004C192.732 16.924 193.74 16.096 195.036 15.52C196.332 14.944 197.832 14.656 199.536 14.656C201.96 14.656 203.94 15.268 205.476 16.492C207.036 17.692 207.9 19.348 208.068 21.46H203.532C203.46 20.548 203.028 19.768 202.236 19.12C201.444 18.472 200.4 18.148 199.104 18.148C197.928 18.148 196.968 18.448 196.224 19.048C195.48 19.648 195.108 20.512 195.108 21.64C195.108 22.408 195.336 23.044 195.792 23.548C196.272 24.028 196.872 24.412 197.592 24.7C198.312 24.988 199.296 25.3 200.544 25.636C202.2 26.092 203.544 26.548 204.576 27.004C205.632 27.46 206.52 28.168 207.24 29.128C207.984 30.064 208.356 31.324 208.356 32.908C208.356 34.18 208.008 35.38 207.312 36.508C206.64 37.636 205.644 38.548 204.324 39.244C203.028 39.916 201.492 40.252 199.716 40.252Z" fill="black"/>
</svg>
